<svg width="150" height="39" viewBox="0 0 150 39" fill="none" xmlns="http://www.w3.org/2000/svg">
<path d="M23.102 18.0633C23.1374 15.4182 24.525 12.9746 26.78 11.5884C25.3498 9.54795 23.0418 8.29964 20.5497 8.22184C17.9266 7.94601 15.3885 9.78841 14.0504 9.78841C12.6876 9.78841 10.6309 8.24659 8.41841 8.29257C5.50505 8.38805 2.85365 10.0041 1.43414 12.5467C-1.58541 17.7698 0.66598 25.4435 3.5581 29.6658C5.00592 31.7345 6.698 34.0402 8.91045 33.9589C11.0769 33.8704 11.884 32.5797 14.5 32.5797C17.0877 32.5797 17.8488 33.9589 20.1072 33.9058C22.4294 33.8705 23.8949 31.83 25.2897 29.7436C26.3304 28.269 27.1304 26.6423 27.6614 24.9201C24.9003 23.7567 23.1055 21.055 23.102 18.0633ZM18.8399 5.44587C20.1072 3.92527 20.7302 1.97324 20.5816 0C18.6452 0.201568 16.8576 1.12807 15.5726 2.58856C14.3053 4.03136 13.661 5.91619 13.7885 7.82931C15.746 7.85053 17.608 6.97 18.8399 5.44587Z" fill="#010202"/>
<path d="M49.0849 28.9369H41.9803L40.2705 33.969H37.2616L43.991 15.3435H47.1167L53.8497 33.969H50.7876L49.0849 28.9369ZM42.7131 26.6136H48.3451L45.5662 18.4448H45.4884C45.4919 18.4448 42.7131 26.6136 42.7131 26.6136ZM68.3881 27.1794C68.3881 31.3982 66.1261 34.1105 62.7136 34.1105C60.9507 34.2024 59.2905 33.2795 58.4374 31.7341H58.3737V38.4601H55.5842V20.3897H58.2852V22.6494H58.3347C59.2233 21.1147 60.887 20.1917 62.6641 20.2483C66.1155 20.2518 68.3881 22.9748 68.3881 27.1794ZM65.5208 27.1794C65.5208 24.4317 64.0977 22.6247 61.9278 22.6247C59.7967 22.6247 58.3631 24.4706 58.3631 27.1829C58.3631 29.92 59.7967 31.7518 61.9278 31.7518C64.0977 31.7518 65.5208 29.9554 65.5208 27.1794ZM83.3478 27.1794C83.3478 31.3982 81.0858 34.1105 77.6733 34.1105C75.9104 34.2024 74.2502 33.2795 73.3971 31.7341H73.3334V38.4601H70.5439V20.3897H73.2449V22.6494H73.2944C74.1865 21.1147 75.8467 20.1917 77.6238 20.2483C81.0752 20.2518 83.3478 22.9748 83.3478 27.1794ZM80.4805 27.1794C80.4805 24.4317 79.0574 22.6247 76.8875 22.6247C74.7564 22.6247 73.3228 24.4706 73.3228 27.1829C73.3228 29.92 74.7564 31.7518 76.8875 31.7518C79.0574 31.7518 80.4805 29.9554 80.4805 27.1794ZM93.2348 28.7813C93.4437 30.6273 95.2384 31.8402 97.6916 31.8402C100.042 31.8402 101.734 30.6273 101.734 28.9617C101.734 27.5153 100.715 26.6525 98.2969 26.0584L95.8791 25.4785C92.456 24.651 90.8666 23.0526 90.8666 20.4569C90.8666 17.2425 93.6702 15.0358 97.6491 15.0358C101.589 15.0358 104.29 17.2425 104.382 20.4569H101.564C101.394 18.5969 99.858 17.4759 97.6102 17.4759C95.3623 17.4759 93.826 18.611 93.826 20.2624C93.826 21.5815 94.8101 22.3524 97.2137 22.9465L99.2668 23.4522C103.093 24.3539 104.679 25.8922 104.679 28.6151C104.679 32.0984 101.901 34.2838 97.4827 34.2838C93.3481 34.2838 90.5551 32.1514 90.3746 28.7849C90.3781 28.7813 93.2348 28.7813 93.2348 28.7813ZM110.708 17.1788V20.3933H113.292V22.5999H110.708V30.0862C110.708 31.2497 111.225 31.7907 112.361 31.7907C112.669 31.7836 112.973 31.7624 113.278 31.7271V33.9195C112.765 34.015 112.248 34.0575 111.727 34.0504C108.977 34.0504 107.901 33.0178 107.901 30.3868V22.6035H105.922V20.3968H107.901V17.1788H110.708ZM114.786 27.1794C114.786 22.9076 117.306 20.2235 121.232 20.2235C125.172 20.2235 127.682 22.9076 127.682 27.1794C127.682 31.4654 125.186 34.1353 121.232 34.1353C117.282 34.1388 114.786 31.4654 114.786 27.1794ZM124.839 27.1794C124.839 24.2478 123.494 22.5186 121.232 22.5186C118.974 22.5186 117.628 24.262 117.628 27.1794C117.628 30.1216 118.974 31.8367 121.232 31.8367C123.494 31.8402 124.839 30.1251 124.839 27.1794ZM129.983 20.3897H132.645V22.6989H132.708C133.08 21.2102 134.443 20.1882 135.976 20.2448C136.298 20.2448 136.62 20.2801 136.932 20.3473V22.9535C136.525 22.8298 136.103 22.7732 135.678 22.7838C134.857 22.752 134.064 23.0773 133.505 23.6785C132.946 24.2797 132.677 25.093 132.772 25.9099V33.962H129.979V20.3897H129.983ZM149.799 29.9801C149.424 32.4449 147.02 34.1353 143.948 34.1353C139.994 34.1353 137.54 31.4901 137.54 27.2431C137.54 22.9854 140.008 20.22 143.831 20.22C147.59 20.22 149.955 22.8015 149.955 26.9177V27.8725H140.355V28.0423C140.266 29.0536 140.613 30.0544 141.314 30.7899C142.015 31.5255 142.995 31.9251 144.011 31.8897C145.367 32.017 146.642 31.239 147.151 29.9801H149.799ZM140.365 25.9276H147.162C147.212 25.0187 146.882 24.1311 146.249 23.4769C145.615 22.8227 144.737 22.462 143.827 22.4797C142.911 22.4726 142.029 22.8333 141.378 23.484C140.73 24.1311 140.362 25.0117 140.365 25.9276Z" fill="#010202"/>
<path d="M42.3663 1.32607C43.5522 1.2412 44.7098 1.6903 45.5275 2.55316C46.3452 3.41247 46.7311 4.59359 46.5824 5.77117C46.5824 8.63202 45.0354 10.2728 42.3663 10.2728H39.1309V1.32253H42.3663V1.32607ZM40.522 9.01039H42.2106C43.0566 9.0599 43.8814 8.72749 44.4549 8.10511C45.0284 7.48272 45.2903 6.63048 45.1664 5.79239C45.2797 4.95782 45.0177 4.11619 44.4443 3.49734C43.8708 2.87849 43.0531 2.54608 42.2106 2.59206H40.522V9.01039ZM48.1506 6.8957C48.0338 5.68276 48.6143 4.51225 49.648 3.87219C50.6816 3.22858 51.9914 3.22858 53.025 3.87219C54.0587 4.51225 54.6392 5.68276 54.5224 6.8957C54.6392 8.10864 54.0622 9.27915 53.025 9.92275C51.9914 10.5664 50.6816 10.5664 49.6444 9.92275C48.6143 9.28269 48.0338 8.10864 48.1506 6.8957ZM53.156 6.8957C53.156 5.43168 52.4976 4.57591 51.3436 4.57591C50.1825 4.57591 49.5311 5.43168 49.5311 6.8957C49.5311 8.37387 50.1825 9.22257 51.3436 9.22257C52.4976 9.22257 53.156 8.36679 53.156 6.8957ZM63.0041 10.2764H61.62L60.2217 5.30438H60.1155L58.7243 10.2764H57.3544L55.4888 3.5221H56.8411L58.0517 8.67445H58.1508L59.5385 3.5221H60.82L62.2076 8.67445H62.3138L63.5174 3.5221H64.8519L63.0041 10.2764ZM66.4272 3.5221H67.7122V4.59359H67.8113C68.1582 3.805 68.9689 3.32053 69.8291 3.39125C70.4946 3.34174 71.1494 3.59636 71.6025 4.08436C72.0592 4.57237 72.2681 5.24073 72.1689 5.90201V10.2728H70.8344V6.23442C70.8344 5.14878 70.3636 4.61127 69.3759 4.61127C68.9228 4.59005 68.4839 4.76687 68.1759 5.09574C67.8644 5.42461 67.7157 5.87372 67.7617 6.32283V10.2728H66.4272V3.5221ZM74.2964 0.884033H75.631V10.2728H74.2964V0.884033ZM77.4824 6.8957C77.3655 5.68276 77.9461 4.51225 78.9833 3.87219C80.0169 3.22858 81.3267 3.22858 82.3604 3.87219C83.394 4.51225 83.9781 5.68276 83.8613 6.8957C83.9781 8.10864 83.4011 9.27915 82.3639 9.92275C81.3267 10.5664 80.0169 10.5664 78.9833 9.92275C77.9461 9.28269 77.3655 8.10864 77.4824 6.8957ZM82.4878 6.8957C82.4878 5.43168 81.8294 4.57591 80.6754 4.57591C79.5143 4.57591 78.8629 5.43168 78.8629 6.8957C78.8629 8.37387 79.5143 9.22257 80.6754 9.22257C81.8294 9.22257 82.4878 8.36679 82.4878 6.8957ZM85.2666 8.36679C85.2666 7.15032 86.1729 6.45013 87.78 6.35112L89.6101 6.24503V5.66154C89.6101 4.94721 89.1393 4.54762 88.226 4.54762C87.4826 4.54762 86.9658 4.81991 86.8171 5.2973H85.5251C85.6596 4.13741 86.7534 3.39479 88.2862 3.39479C89.9818 3.39479 90.9376 4.23642 90.9376 5.66508V10.2799H89.6526V9.32866H89.5464C89.111 10.0218 88.3322 10.4284 87.5145 10.3895C86.941 10.4497 86.3676 10.2622 85.9392 9.87679C85.5144 9.49133 85.2666 8.94321 85.2666 8.36679ZM89.6101 7.79038V7.22458L87.957 7.33066C87.026 7.39432 86.6047 7.70905 86.6047 8.30668C86.6047 8.91492 87.1322 9.26855 87.8579 9.26855C88.2862 9.31098 88.7181 9.18014 89.0473 8.90077C89.38 8.61787 89.5818 8.21827 89.6101 7.79038ZM92.6934 6.8957C92.6934 4.75979 93.7908 3.40893 95.5006 3.40893C96.3608 3.37003 97.1714 3.82975 97.5749 4.59359H97.6741V0.884033H99.0086V10.2764H97.7307V9.20843H97.6245C97.1926 9.96519 96.3714 10.4214 95.5006 10.386C93.7802 10.386 92.6934 9.03515 92.6934 6.8957ZM94.0704 6.8957C94.0704 8.32789 94.7466 9.19075 95.8758 9.19075C97.0015 9.19075 97.6953 8.31729 97.6953 6.90278C97.6953 5.49534 96.9909 4.60773 95.8758 4.60773C94.7572 4.60773 94.0704 5.47412 94.0704 6.8957ZM104.527 6.8957C104.411 5.68276 104.991 4.51225 106.025 3.87219C107.058 3.22858 108.368 3.22858 109.402 3.87219C110.435 4.51225 111.016 5.68276 110.899 6.8957C111.016 8.10864 110.439 9.27915 109.402 9.92275C108.368 10.5664 107.058 10.5664 106.021 9.92275C104.988 9.28269 104.407 8.10864 104.527 6.8957ZM109.533 6.8957C109.533 5.43168 108.874 4.57591 107.72 4.57591C106.559 4.57591 105.908 5.43168 105.908 6.8957C105.908 8.37387 106.559 9.22257 107.72 9.22257C108.874 9.22257 109.533 8.36679 109.533 6.8957ZM112.694 3.5221H113.979V4.59359H114.078C114.425 3.805 115.236 3.32053 116.096 3.39125C116.761 3.34174 117.416 3.59636 117.869 4.08436C118.326 4.57237 118.531 5.24073 118.436 5.90201V10.2728H117.101V6.23442C117.101 5.14878 116.63 4.61127 115.643 4.61127C115.19 4.59005 114.754 4.76687 114.443 5.09574C114.135 5.42461 113.982 5.87372 114.032 6.32283V10.2728H112.697V3.5221H112.694ZM125.976 1.84237V3.55392H127.441V4.67492H125.976V8.14755C125.976 8.8548 126.266 9.16599 126.932 9.16599C127.101 9.16599 127.271 9.15538 127.441 9.13417V10.2446C127.201 10.287 126.96 10.3117 126.716 10.3153C125.232 10.3153 124.641 9.79191 124.641 8.49056V4.67492H123.565V3.55392H124.638V1.84237H125.976ZM129.261 0.884033H130.585V4.6042H130.691C131.052 3.80853 131.877 3.32407 132.751 3.39479C133.413 3.35943 134.057 3.62111 134.51 4.10558C134.96 4.59359 135.169 5.25487 135.08 5.91262V10.2728H133.746V6.23795C133.746 5.15939 133.243 4.61127 132.302 4.61127C131.838 4.57237 131.381 4.74211 131.052 5.07452C130.723 5.4034 130.56 5.86311 130.599 6.32636V10.2728H129.264V0.884033H129.261ZM142.858 8.45167C142.482 9.72473 141.25 10.5487 139.927 10.4037C139.027 10.4284 138.16 10.0536 137.558 9.3817C136.957 8.70981 136.68 7.80806 136.804 6.91692C136.684 6.02224 136.96 5.11695 137.558 4.44153C138.157 3.76256 139.017 3.38064 139.923 3.38772C141.803 3.38772 142.939 4.67139 142.939 6.79315V7.2564H138.167V7.33066C138.125 7.83281 138.298 8.32789 138.638 8.69567C138.981 9.06344 139.463 9.27208 139.966 9.26501C140.62 9.3428 141.254 9.02101 141.576 8.44459L142.858 8.45167ZM138.167 6.27685H141.583C141.615 5.81714 141.456 5.36803 141.137 5.03562C140.822 4.69968 140.376 4.51933 139.916 4.5264C139.449 4.51933 138.999 4.70321 138.67 5.03562C138.341 5.36096 138.16 5.81007 138.167 6.27685Z" fill="#010202"/>
</svg>
