<svg width="894" height="264" viewBox="0 0 894 264" fill="none" xmlns="http://www.w3.org/2000/svg">
<mask id="mask0_1_197" style="mask-type:alpha" maskUnits="userSpaceOnUse" x="0" y="0" width="894" height="264">
<rect width="894" height="264" rx="24" fill="url(#paint0_linear_1_197)"/>
</mask>
<g mask="url(#mask0_1_197)">
<path opacity="0.8" d="M760.241 -383.336C654.153 -492.391 396.165 -326.881 201.401 -126.672C99.867 -22.2992 16.2821 91.1618 -34.351 193.056C-76.4114 277.601 -113.114 391.889 -50.425 456.605C-30.0646 477.535 -1.6672 488 34.4993 488C74.1486 488 123.174 475.332 181.309 449.996C264.358 413.92 355.176 355.262 434.206 287.24L484.572 336.81L542.974 91.4373L307.222 161.937L356.515 210.406C293.291 263.281 221.762 313.678 155.322 343.42C69.3264 381.974 37.1783 388.309 26.1944 378.119C13.6031 366.828 20.0327 323.592 64.7721 235.742C110.851 145.689 186.399 44.6208 277.217 -48.7367C371.25 -145.399 470.641 -223.885 557.173 -269.875C644.24 -316.141 675.852 -313.938 684.425 -305.401C690.051 -299.893 692.462 -282.819 674.513 -231.872C655.76 -177.62 616.379 -109.047 564.138 -38.2719C546.189 -14.0374 550.743 20.3864 574.318 38.8376C597.894 57.2888 631.381 52.6072 649.33 28.3728C709.072 -52.3167 752.74 -129.426 775.511 -194.969C795.872 -252.801 809.535 -332.665 760.241 -383.336Z" fill="#FE8372"/>
</g>
<defs>
<linearGradient id="paint0_linear_1_197" x1="26.224" y1="264" x2="479.907" y2="-321.09" gradientUnits="userSpaceOnUse">
<stop stop-color="#F16076"/>
<stop offset="1" stop-color="#FF805B"/>
</linearGradient>
</defs>
</svg>
