<svg width="105" height="88" viewBox="0 0 105 88" fill="none" xmlns="http://www.w3.org/2000/svg">
<path d="M37.558 72.9476L43.4977 77.2242L52.0508 72.71C50.1501 70.8093 48.487 68.671 46.5863 66.2952C43.4977 68.671 40.409 70.8093 37.558 72.9476Z" fill="url(#paint0_linear_1_120)"/>
<path d="M103.845 1.43401C101.707 -1.65462 94.8167 0.246072 82.9373 7.1361C79.1359 9.27438 75.097 11.8878 70.8204 14.7389L61.5545 8.08645L48.7248 14.7389C41.3596 7.1361 29.0051 -3.79291 22.8278 1.43401C14.0371 8.56162 28.5299 36.5969 40.4092 53.7032C42.0723 55.8415 43.7355 58.2173 45.3986 60.5932C44.6858 61.0684 43.973 61.7811 43.2603 62.2563C41.5972 60.118 39.9341 57.7422 38.271 55.3663C33.5192 48.4763 29.2426 41.5862 25.9164 34.9338L20.2143 56.5542C16.8881 59.8804 14.0371 62.9691 11.4236 65.8201C2.1577 76.274 -1.40611 83.164 0.494591 86.015C1.20735 86.9654 2.1577 87.4406 3.82081 87.4406C9.99808 87.4406 22.5902 80.3129 35.4199 71.2846C38.5085 69.1463 41.5972 67.0081 44.9234 64.3946C45.6362 63.9194 46.3489 63.2067 47.0617 62.7315C57.0403 75.3236 69.6324 87.4406 77.4728 87.4406C78.8983 87.4406 80.3239 86.9654 81.5118 86.015C87.6891 81.0257 81.7494 65.8201 77.2352 56.3166L82.9373 34.9338C76.0473 41.8238 67.9694 48.9514 59.8914 55.3663C57.2779 57.5046 54.4269 59.8805 51.5758 62.0187C51.1007 61.5436 50.6255 60.8308 50.1503 60.3556C52.7638 58.2173 55.6148 56.0791 58.4659 53.7032C67.2566 46.5756 74.6218 39.9231 80.799 33.7459C85.3132 29.4693 89.3522 25.4303 92.6784 21.6289C102.182 11.4127 105.983 4.52264 103.845 1.43401ZM20.4519 77.4619C8.57256 84.3519 4.29599 84.5895 3.58322 83.6392C2.1577 81.7385 8.33497 72.9477 20.4519 60.5932L32.8064 69.6215C28.5299 72.4726 24.2533 75.3236 20.4519 77.4619ZM69.1573 31.8452L52.2886 48.7139C51.8134 49.189 51.3382 49.4266 50.8631 49.4266C50.3879 49.4266 50.1503 49.189 49.9127 48.9514L43.4979 39.6855C43.0227 38.9728 43.2603 38.0224 44.2106 37.3097C44.9234 36.5969 46.1113 36.5969 46.5865 37.3097L52.051 45.15L67.4942 29.7069C68.2069 28.9941 69.3949 28.7565 69.87 29.4693C70.1076 29.9445 69.87 30.8948 69.1573 31.8452ZM24.4909 3.80988C26.6292 2.14677 33.9944 5.2354 45.161 16.6396L28.5299 25.1927C23.5405 13.7885 22.115 5.71058 24.4909 3.80988ZM75.097 60.5932C81.7494 74.8484 81.7494 82.2136 79.8487 83.6392C77.2352 85.7775 68.6821 80.7881 57.9907 69.3839L75.097 60.5932ZM90.7777 19.9658C89.1146 21.6289 87.4515 23.5296 85.5508 25.4303L73.4339 16.6396C77.2352 14.2637 80.5615 11.8878 83.8877 9.98715C92.916 4.76023 97.4302 3.33471 99.5684 3.33471C100.281 3.33471 100.519 3.57229 100.756 3.80988C101.469 4.76023 100.044 9.27438 90.7777 19.9658Z" fill="url(#paint1_linear_1_120)"/>
<defs>
<linearGradient id="paint0_linear_1_120" x1="37.9831" y1="77.2242" x2="53.5898" y2="69.3425" gradientUnits="userSpaceOnUse">
<stop stop-color="#F16076"/>
<stop offset="1" stop-color="#FF805B"/>
</linearGradient>
<linearGradient id="paint1_linear_1_120" x1="3.0631" y1="87.4406" x2="120.003" y2="34.2558" gradientUnits="userSpaceOnUse">
<stop stop-color="#F16076"/>
<stop offset="1" stop-color="#FF805B"/>
</linearGradient>
</defs>
</svg>
