<svg width="81" height="95" viewBox="0 0 81 95" fill="none" xmlns="http://www.w3.org/2000/svg">
<path d="M16.6916 68.9611C15.7413 68.9611 14.7909 69.6738 14.5533 70.6242L10.7519 85.117C10.5144 86.0673 10.9895 86.7801 11.9399 86.7801C12.8902 86.7801 13.8406 86.0673 14.0782 85.117L17.8796 70.6242C18.1171 69.6738 17.642 68.9611 16.6916 68.9611Z" fill="url(#paint0_linear_1_126)"/>
<path d="M79.1771 34.5107H71.3367L72.9998 28.3334H67.7729C67.0601 28.3334 66.585 27.8582 66.8225 27.1455C67.0601 26.4327 67.5353 25.9575 68.2481 25.9575H76.5636C77.514 25.9575 78.2267 25.2448 78.2267 24.2944C78.2267 23.3441 77.514 22.6313 76.5636 22.6313H74.4253L77.9891 8.61368C77.9891 8.61368 67.2977 13.3654 59.2197 13.3654C50.9042 13.3654 58.2694 8.3761 53.9928 3.38677C50.429 -0.889803 32.3724 3.14918 26.6703 4.5747L27.3831 2.19883C27.6207 1.24848 27.1455 0.298132 26.1951 0.0605453C25.2448 -0.177042 24.2944 0.298133 24.0568 1.24848L0.0605453 92.2444C-0.177042 93.1947 0.298133 94.1451 1.24848 94.3827C1.48607 94.3827 1.48607 94.3827 1.72366 94.3827C2.43642 94.3827 3.14918 93.9075 3.38677 93.1947L12.6527 57.7942C18.5923 56.3687 36.649 52.3297 39.9752 56.6063C44.2518 61.5956 36.8866 66.585 45.2021 66.585C53.2801 66.585 63.9715 61.8332 63.9715 61.8332L69.436 40.688H62.3084C61.5956 40.688 61.1204 40.2128 61.358 39.5C61.5956 38.7873 62.0708 38.3121 62.7836 38.3121H78.9395C79.8898 38.3121 80.6026 37.5993 80.6026 36.649C80.8402 35.2234 80.1274 34.5107 79.1771 34.5107ZM49.0035 32.3724C45.6773 40.2128 39.7376 45.6773 34.2731 45.6773C31.422 45.6773 29.0462 44.0142 27.6207 40.9255L24.0568 42.3511L28.0958 32.1348L34.2731 38.5497L30.9469 39.7376C31.8972 41.4007 33.3227 42.3511 34.9859 42.3511C38.5497 42.3511 43.0638 37.8369 45.6773 31.8972C46.1525 30.9469 47.1028 30.2341 48.0532 30.4717C49.0035 30.4717 49.4787 31.4221 49.0035 32.3724ZM49.2411 25.72L43.0638 19.3051L46.39 18.1172C45.4397 16.4541 44.0142 15.5037 42.3511 15.5037C38.7873 15.5037 34.2731 20.0179 31.6596 25.9575C31.1845 26.9079 30.4717 27.3831 29.7589 27.3831H29.5214C28.571 27.1455 28.3334 26.4327 28.571 25.4824C31.8972 17.642 37.8369 11.9399 43.0638 11.9399C45.9149 11.9399 48.2907 13.603 49.7163 16.6916L53.2801 15.2661L49.2411 25.72Z" fill="url(#paint1_linear_1_126)"/>
<defs>
<linearGradient id="paint0_linear_1_126" x1="10.904" y1="86.7801" x2="20.471" y2="85.298" gradientUnits="userSpaceOnUse">
<stop stop-color="#F16076"/>
<stop offset="1" stop-color="#FF805B"/>
</linearGradient>
<linearGradient id="paint1_linear_1_126" x1="2.36569" y1="94.3827" x2="100.925" y2="62.3096" gradientUnits="userSpaceOnUse">
<stop stop-color="#F16076"/>
<stop offset="1" stop-color="#FF805B"/>
</linearGradient>
</defs>
</svg>
