<svg width="375" height="229" viewBox="0 0 375 229" fill="none" xmlns="http://www.w3.org/2000/svg">
<path opacity="0.05" d="M567.316 -342.573C480.319 -432.007 268.757 -296.275 109.042 -132.086C25.7793 -46.4904 -42.7641 46.5577 -84.2856 130.12C-118.777 199.455 -148.875 293.18 -97.467 346.254C-80.7705 363.418 -57.4833 372 -27.8251 372C4.68905 372 44.8924 361.611 92.5652 340.833C160.669 311.248 235.144 263.143 299.953 207.359L341.255 248.011L389.147 46.7835L195.82 104.6L236.243 144.348C184.396 187.711 125.738 229.04 71.2553 253.431C0.734634 285.05 -25.6282 290.244 -34.6355 281.888C-44.961 272.628 -39.6884 237.171 -3.00012 165.126C34.7866 91.2749 96.7393 8.38993 171.214 -68.1714C248.326 -147.443 329.831 -211.809 400.791 -249.525C472.19 -287.467 498.114 -285.66 505.144 -278.659C509.757 -274.142 511.735 -260.14 497.015 -218.358C481.637 -173.867 449.342 -117.631 406.503 -59.5894C391.784 -39.715 395.518 -11.4844 414.851 3.64716C434.184 18.7788 461.645 14.9394 476.364 -4.93491C525.355 -71.1074 561.165 -134.344 579.839 -188.095C596.535 -235.522 607.739 -301.017 567.316 -342.573Z" fill="white"/>
</svg>
