<svg width="175" height="43" viewBox="0 0 175 43" fill="none" xmlns="http://www.w3.org/2000/svg">
<path d="M71.4122 36.8861C75.0446 36.8861 77.9893 34.0299 77.9893 30.5066C77.9893 26.9834 75.0446 24.1272 71.4122 24.1272C67.7797 24.1272 64.835 26.9834 64.835 30.5066C64.835 34.0299 67.7797 36.8861 71.4122 36.8861Z" fill="black"/>
<path d="M85.7577 36.8861C89.3902 36.8861 92.3349 34.0299 92.3349 30.5066C92.3349 26.9834 89.3902 24.1272 85.7577 24.1272C82.1252 24.1272 79.1805 26.9834 79.1805 30.5066C79.1805 34.0299 82.1252 36.8861 85.7577 36.8861Z" fill="black"/>
<path fill-rule="evenodd" clip-rule="evenodd" d="M57.6659 6.06761C57.6659 7.32653 57.2846 8.32376 56.5183 9.07345C55.6466 9.96106 54.5171 10.4031 53.1225 10.4031C51.7897 10.4031 50.6529 9.95397 49.7232 9.05222C48.7862 8.15401 48.3213 7.03302 48.3213 5.70338C48.3213 4.3702 48.7862 3.25274 49.7232 2.35452C50.6529 1.45631 51.7897 1.00366 53.1225 1.00366C53.7835 1.00366 54.4191 1.13097 55.0183 1.37851C55.6212 1.62958 56.1042 1.96553 56.4638 2.38281L55.6503 3.17493C55.0401 2.46414 54.1976 2.10698 53.1189 2.10698C52.1456 2.10698 51.3066 2.43938 50.5948 3.10774C49.883 3.7761 49.5307 4.63896 49.5307 5.70338C49.5307 6.7678 49.8866 7.63065 50.5948 8.299C51.303 8.96736 52.1456 9.29623 53.1189 9.29623C54.1503 9.29623 55.0111 8.96028 55.7011 8.29192C56.1478 7.85343 56.4057 7.24872 56.4747 6.47074H53.1189V5.38864H57.5969C57.6441 5.62204 57.6659 5.84836 57.6659 6.06761Z" fill="#010202"/>
<path d="M57.6659 6.06761C57.6659 7.32653 57.2846 8.32376 56.5183 9.07345C55.6466 9.96106 54.5171 10.4031 53.1225 10.4031C51.7897 10.4031 50.6529 9.95397 49.7232 9.05222C48.7862 8.15401 48.3213 7.03302 48.3213 5.70338C48.3213 4.3702 48.7862 3.25274 49.7232 2.35452C50.6529 1.45631 51.7897 1.00366 53.1225 1.00366C53.7835 1.00366 54.4191 1.13097 55.0183 1.37851C55.6212 1.62958 56.1042 1.96553 56.4638 2.38281L55.6503 3.17493C55.0401 2.46414 54.1976 2.10698 53.1189 2.10698C52.1456 2.10698 51.3066 2.43938 50.5948 3.10774C49.883 3.7761 49.5307 4.63896 49.5307 5.70338C49.5307 6.7678 49.8866 7.63065 50.5948 8.299C51.303 8.96736 52.1456 9.29623 53.1189 9.29623C54.1503 9.29623 55.0111 8.96028 55.7011 8.29192C56.1478 7.85343 56.4057 7.24873 56.4747 6.47074H53.1189V5.38864H57.5969C57.6441 5.62204 57.6659 5.84836 57.6659 6.06761Z" stroke="#010202" stroke-width="0.2"/>
<path fill-rule="evenodd" clip-rule="evenodd" d="M64.766 2.30839H60.5567V5.16216H64.3483V6.24427H60.5567V9.09804H64.766V10.2049H59.3691V1.20508H64.766V2.30839Z" fill="#010202"/>
<path d="M64.766 2.30839H60.5567V5.16216H64.3483V6.24427H60.5567V9.09804H64.766V10.2049H59.3691V1.20508H64.766V2.30839Z" stroke="#010202" stroke-width="0.2"/>
<path fill-rule="evenodd" clip-rule="evenodd" d="M69.7708 10.2012H68.5832V2.30827H66.001V1.20142H72.353V2.30827H69.7708V10.2012Z" fill="#010202"/>
<path d="M69.7708 10.2012H68.5832V2.30827H66.001V1.20142H72.353V2.30827H69.7708V10.2012Z" stroke="#010202" stroke-width="0.2"/>
<path fill-rule="evenodd" clip-rule="evenodd" d="M76.9468 10.2012H78.1344V1.20142H76.9468V10.2012Z" fill="#010202"/>
<path d="M76.9468 10.2012H78.1344V1.20142H76.9468V10.2012Z" stroke="#010202" stroke-width="0.2"/>
<path fill-rule="evenodd" clip-rule="evenodd" d="M83.4041 10.2012H82.2165V2.30827H79.6343V1.20142H85.9863V2.30827H83.4041V10.2012Z" fill="#010202"/>
<path d="M83.4041 10.2012H82.2165V2.30827H79.6343V1.20142H85.9863V2.30827H83.4041V10.2012Z" stroke="#010202" stroke-width="0.2"/>
<path fill-rule="evenodd" clip-rule="evenodd" d="M92.1063 8.28473C92.7891 8.96016 93.6281 9.2961 94.6195 9.2961C95.6074 9.2961 96.4427 8.96016 97.1291 8.28473C97.8119 7.6093 98.1569 6.74999 98.1569 5.70326C98.1569 4.65652 97.8119 3.79366 97.1291 3.12177C96.4463 2.44634 95.6074 2.1104 94.6195 2.1104C93.6281 2.1104 92.7927 2.44987 92.11 3.12177C91.4272 3.79366 91.0822 4.65652 91.0822 5.70326C91.0822 6.74999 91.4235 7.6093 92.1063 8.28473ZM98.008 9.03796C97.0964 9.95032 95.9706 10.403 94.6195 10.403C93.2685 10.403 92.139 9.95032 91.2311 9.03796C90.3231 8.12914 89.8691 7.01875 89.8691 5.70326C89.8691 4.38776 90.3231 3.27383 91.2311 2.36501C92.139 1.45619 93.2649 1 94.6159 1C95.9597 1 97.0855 1.45618 97.9971 2.36854C98.9087 3.2809 99.3627 4.39129 99.3627 5.69972C99.3699 7.01875 98.9159 8.12914 98.008 9.03796Z" fill="#010202"/>
<path d="M92.1063 8.28473C92.7891 8.96016 93.6281 9.2961 94.6195 9.2961C95.6074 9.2961 96.4427 8.96016 97.1291 8.28473C97.8119 7.6093 98.1569 6.74999 98.1569 5.70326C98.1569 4.65652 97.8119 3.79366 97.1291 3.12177C96.4463 2.44634 95.6074 2.1104 94.6195 2.1104C93.6281 2.1104 92.7927 2.44987 92.11 3.12177C91.4272 3.79366 91.0822 4.65652 91.0822 5.70326C91.0822 6.74999 91.4235 7.6093 92.1063 8.28473ZM98.008 9.03796C97.0964 9.95032 95.9706 10.403 94.6195 10.403C93.2685 10.403 92.139 9.95032 91.2311 9.03796C90.3231 8.12914 89.8691 7.01875 89.8691 5.70326C89.8691 4.38776 90.3231 3.27383 91.2311 2.36501C92.139 1.45619 93.2649 1 94.6159 1C95.9597 1 97.0855 1.45618 97.9971 2.36854C98.9087 3.2809 99.3627 4.39129 99.3627 5.69972C99.3699 7.01875 98.916 8.12914 98.008 9.03796Z" stroke="#010202" stroke-width="0.2"/>
<path fill-rule="evenodd" clip-rule="evenodd" d="M101.037 10.2012V1.20142H102.483L106.975 8.19971H107.026L106.975 6.46693V1.20142H108.166V10.2012H106.924L102.225 2.85993H102.174L102.225 4.59624V10.2012H101.037Z" fill="#010202"/>
<path d="M101.037 10.2012V1.20142H102.483L106.975 8.19971H107.026L106.975 6.46693V1.20142H108.166V10.2012H106.924L102.225 2.85993H102.174L102.225 4.59624V10.2012H101.037Z" stroke="#010202" stroke-width="0.2"/>
<path d="M148.399 17.751H145.526V36.5003H148.399V17.751Z" fill="black"/>
<path fill-rule="evenodd" clip-rule="evenodd" d="M171.414 24.5056L168.12 32.6355H168.018L164.601 24.5056H161.503L166.631 35.8641L163.707 42.187H166.704L174.606 24.5056H171.414Z" fill="black"/>
<path fill-rule="evenodd" clip-rule="evenodd" d="M155.46 24.0952C153.379 24.0952 151.225 24.9864 150.332 26.9667L152.881 28.0028C153.426 26.9667 154.443 26.6272 155.507 26.6272C156.992 26.6272 158.503 27.4971 158.529 29.0389V29.2334C158.006 28.9435 156.894 28.512 155.532 28.512C152.779 28.512 149.983 29.9831 149.983 32.7308C149.983 35.2416 152.238 36.8576 154.766 36.8576C156.694 36.8576 157.762 36.0125 158.43 35.0223H158.529V36.4687H161.303V29.2794C161.307 25.9518 158.754 24.0952 155.46 24.0952Z" fill="black"/>
<path fill-rule="evenodd" clip-rule="evenodd" d="M137.623 17.751H130.737V36.5003H133.61V29.3959H137.623C140.808 29.3959 143.939 27.1504 143.939 23.5717C143.939 19.9965 140.808 17.751 137.623 17.751Z" fill="black"/>
<path fill-rule="evenodd" clip-rule="evenodd" d="M103.365 25.5524H103.266C102.62 24.8027 101.378 24.1238 99.8199 24.1238C96.544 24.1238 93.5405 26.928 93.5405 30.528C93.5405 34.1031 96.544 36.8827 99.8199 36.8827C101.382 36.8827 102.624 36.2072 103.266 35.4363H103.365V36.3522C103.365 38.7923 102.024 40.0971 99.8671 40.0971C98.1057 40.0971 97.0125 38.8665 96.5658 37.8269L94.0599 38.8418C94.779 40.5321 96.6893 42.6114 99.8671 42.6114C103.245 42.6114 106.096 40.6771 106.096 35.9668V24.5128H103.365V25.5524Z" fill="black"/>
<path fill-rule="evenodd" clip-rule="evenodd" d="M108.083 36.5003H110.963V17.751H108.083V36.5003Z" fill="black"/>
<path fill-rule="evenodd" clip-rule="evenodd" d="M124.139 28.1868C123.594 26.7617 121.931 24.1272 118.531 24.1272C115.157 24.1272 112.354 26.7158 112.354 30.5066C112.354 34.0818 115.132 36.8861 118.854 36.8861C121.858 36.8861 123.594 35.0967 124.317 34.0571L122.083 32.6072C121.335 33.6716 120.322 34.3718 118.854 34.3718C117.391 34.3718 116.348 33.7176 115.68 32.4374L124.44 28.9083L124.139 28.1868Z" fill="black"/>
<path fill-rule="evenodd" clip-rule="evenodd" d="M54.3499 26.0866V28.7918H61.0034C60.8036 30.316 60.2806 31.4264 59.4889 32.1973C58.5192 33.1415 57.0047 34.1776 54.3499 34.1776C50.2532 34.1776 47.0536 30.9631 47.0536 26.9777C47.0536 22.9924 50.2569 19.7779 54.3499 19.7779C56.558 19.7779 58.1706 20.623 59.3618 21.7087L61.323 19.7991C59.6596 18.2537 57.4515 17.0691 54.3499 17.0691C48.7424 17.0691 44.0283 21.5177 44.0283 26.9777C44.0283 32.4377 48.7424 36.8829 54.3499 36.8829C57.3788 36.8829 59.6596 35.9175 61.4464 34.1033C63.2805 32.314 63.8543 29.8032 63.8543 27.7734C63.8543 27.1475 63.8071 26.5675 63.7054 26.0831L54.3499 26.0866Z" fill="black"/>
<path fill-rule="evenodd" clip-rule="evenodd" d="M18.998 20.6829L0.341385 2.55237C0.127108 2.97319 0 3.48949 0 4.11541V37.2574C0 37.8904 0.13074 38.4173 0.35228 38.8381L18.998 20.6829Z" fill="black"/>
<path fill-rule="evenodd" clip-rule="evenodd" d="M0.395691 2.43742C0.403011 2.41912 0.413992 2.40447 0.424972 2.38617C0.413992 2.40447 0.406671 2.42278 0.395691 2.43742Z" fill="black"/>
<path fill-rule="evenodd" clip-rule="evenodd" d="M20.0762 19.6327L25.8217 14.0383L3.91469 1.91944C3.29365 1.57289 2.70893 1.41022 2.18595 1.41022C1.92083 1.41022 1.6775 1.45618 1.45233 1.53752L20.0762 19.6327Z" fill="black"/>
<path fill-rule="evenodd" clip-rule="evenodd" d="M33.9242 18.5227L27.209 14.8061L21.1656 20.6905L27.209 26.5607L33.9242 22.844C36.0742 21.6594 36.0742 19.7109 33.9242 18.5227Z" fill="black"/>
<path fill-rule="evenodd" clip-rule="evenodd" d="M20.0906 21.7438L1.50665 39.846C2.17127 40.0652 3.00296 39.9591 3.91454 39.457L25.8361 27.324L20.0906 21.7438Z" fill="black"/>
<path fill-rule="evenodd" clip-rule="evenodd" d="M0.377319 38.895C0.464483 39.0506 0.562544 39.192 0.67513 39.3122C0.562544 39.1849 0.457219 39.0506 0.377319 38.895Z" fill="black"/>
<path d="M71.412 26.6416C69.4291 26.6416 67.7148 28.2117 67.7148 30.5067C67.7148 32.777 69.4254 34.3754 71.412 34.3754C73.3986 34.3754 75.1092 32.7806 75.1092 30.5067C75.1092 28.2117 73.3986 26.6416 71.412 26.6416Z" fill="white"/>
<path d="M89.4554 30.5067C89.4554 28.2117 87.7448 26.6416 85.7582 26.6416C83.7752 26.6416 82.061 28.2117 82.061 30.5067C82.061 32.777 83.7716 34.3754 85.7582 34.3754C87.7448 34.3754 89.4554 32.777 89.4554 30.5067Z" fill="white"/>
<path fill-rule="evenodd" clip-rule="evenodd" d="M100.067 34.3753C98.0843 34.3753 96.4209 32.7557 96.4209 30.5349C96.4209 28.2859 98.0843 26.645 100.071 26.645C102.028 26.645 103.568 28.2894 103.568 30.5349C103.565 32.7557 102.025 34.3718 100.067 34.3753Z" fill="#FBFBFB"/>
<path fill-rule="evenodd" clip-rule="evenodd" d="M137.696 26.7865H133.606V20.3611H137.696C139.846 20.3611 141.066 22.0939 141.066 23.572C141.063 25.0254 139.842 26.7865 137.696 26.7865Z" fill="white"/>
<path fill-rule="evenodd" clip-rule="evenodd" d="M115.204 30.3159C115.131 27.8511 117.165 26.5957 118.632 26.5957C119.773 26.5957 120.743 27.1544 121.062 27.9501L115.204 30.3159Z" fill="white"/>
<path fill-rule="evenodd" clip-rule="evenodd" d="M155.111 34.3719C154.17 34.3719 152.855 33.9122 152.855 32.7806C152.855 31.3342 154.49 30.7791 155.903 30.7791C157.163 30.7791 157.762 31.0443 158.528 31.405C158.307 33.1413 156.771 34.3719 155.111 34.3719Z" fill="#FBFBFB"/>
</svg>
