<svg width="375" height="476" viewBox="0 0 375 476" fill="none" xmlns="http://www.w3.org/2000/svg">
<path fill-rule="evenodd" clip-rule="evenodd" d="M0.138182 334L0.218308 389.667C0.41372 414.082 7.44864 436.545 24.6451 453.733C39.4966 468.578 60.2105 476 86.5914 476C115.513 476 151.274 467.015 193.679 449.045C253.28 423.849 318.157 383.221 375.218 336.148V334V293.958L375.218 238H375.134L375 86.3331C374.805 61.9177 367.77 39.4554 350.573 22.2669C335.722 7.4223 315.008 2.30629e-06 288.627 0C259.706 -2.52838e-06 223.945 8.98491 181.54 26.9547C121.939 52.1515 57.0611 92.7788 0.000139043 139.852L0.000135355 182.042L0.000107987 238H0L0.00010795 238.075L6.10352e-05 334H0.138182Z" fill="#F8F8FF"/>
</svg>
