<svg width="1440" height="698" viewBox="0 0 1440 698" fill="none" xmlns="http://www.w3.org/2000/svg" preserveAspectRatio="none">
<path fill-rule="evenodd" clip-rule="evenodd" d="M1440 86.4999V138V306V515.208V557.363C1221.01 604.398 972.029 644.992 743.293 670.168C580.552 688.123 443.311 697.1 332.318 697.1C231.074 697.1 151.579 689.684 94.5822 674.852C28.5862 657.677 0.749954 634.395 0 610V306V138H7.55979C224.705 91.6932 470.599 51.7749 696.707 26.9094C859.448 8.96981 996.689 -9.70333e-06 1107.68 0C1208.93 8.85102e-06 1288.42 7.40982 1345.42 22.2295C1411.41 39.3892 1439.25 62.1254 1440 86.4999Z" fill="#F8F8FF"/>
</svg>
